# xmcd
#
# Track frame offsets:
#	182
#	26427
#	49055
#	73457
#	100092
#	111912
#	142317
#	172415
#	177430
#	195222
#
# Disc length: 2962 seconds
#
# Revision: 2
# Processed by: cddbd v1.5.2PL0 Copyright (c) Steve Scherf et al.
# Submitted via: audiograbber 1.83.01
#
DISCID=970b900a
DTITLE=Roger Chapman and The Shortlist - Live in Hamburg
DYEAR=1979
DGENRE=Blues Rock
TTITLE0=Moth To A Flame
TTITLE1=Keep Forgettin'
TTITLE2=Midnite Child
TTITLE3=Who Pulled The Nite Down
TTITLE4=Talking About You
TTITLE5=Short List
TTITLE6=Can't Get In
TTITLE7=Keep A Knockin'
TTITLE8=I'm Your Hoochie Couchie Man
TTITLE9=Let's Spend The Night Together
EXTD=
EXTT0=
EXTT1=
EXTT2=
EXTT3=
EXTT4=
EXTT5=
EXTT6=
EXTT7=
EXTT8=
EXTT9=
PLAYORDER=
